<?xml version="1.0" standalone="no"?>
<!DOCTYPE svg PUBLIC "-//W3C//DTD SVG 20010904//EN"
 "http://www.w3.org/TR/2001/REC-SVG-20010904/DTD/svg10.dtd">
<svg version="1.0" xmlns="http://www.w3.org/2000/svg"
 width="40.000000pt" height="40.000000pt" viewBox="0 0 40.000000 40.000000"
 preserveAspectRatio="xMidYMid meet">

<g transform="translate(0.000000,40.000000) scale(0.100000,-0.100000)"
fill="#000000" stroke="none">
<path d="M218 383 c12 -2 30 -2 40 0 9 3 -1 5 -23 4 -22 0 -30 -2 -17 -4z"/>
<path d="M288 333 c6 -2 10 -8 8 -11 -2 -4 13 -15 33 -24 l36 -17 -33 29 c-18
17 -38 30 -45 29 -9 0 -9 -2 1 -6z"/>
<path d="M22 301 c-29 -81 -7 -186 50 -237 33 -30 86 -56 106 -51 13 3 10 7
-10 15 -31 13 -37 32 -10 32 15 1 14 2 -3 12 -71 39 -107 99 -114 193 -6 70
-6 70 -19 36z"/>
</g>
</svg>
